<svg width="48" height="48" viewBox="0 0 48 48" fill="none" xmlns="http://www.w3.org/2000/svg">
<path fill-rule="evenodd" clip-rule="evenodd" d="M24.1072 6.45408V2V6.45408ZM32.3082 8.48925L34.3992 4.55653L32.3082 8.48925ZM38.6577 14.1619L42.3063 11.6071L38.6577 14.1619ZM41.6486 22.1259L46.0694 21.583L41.6486 22.1259ZM40.632 30.5798L44.7902 32.176L40.632 30.5798ZM35.8111 37.6181L38.7914 40.9281L35.8111 37.6181ZM28.33 41.5705L29.4076 45.8922L28.33 41.5705ZM19.8843 41.5705L18.8068 45.8922L19.8843 41.5705ZM12.4033 37.6181L9.4229 40.9281L12.4033 37.6181ZM7.58237 30.5798L3.42412 32.176L7.58237 30.5798ZM6.56578 22.1259L2.1449 21.583L6.56578 22.1259ZM9.55662 14.1619L5.90805 11.6071L9.55662 14.1619ZM15.9061 8.48925L13.8151 4.55653L15.9061 8.48925Z" fill="#E1F2FA"/>
<path d="M22.3572 6.45408C22.3572 7.42058 23.1407 8.20408 24.1072 8.20408C25.0737 8.20408 25.8572 7.42058 25.8572 6.45408H22.3572ZM25.8572 2C25.8572 1.0335 25.0737 0.25 24.1072 0.25C23.1407 0.25 22.3572 1.0335 22.3572 2H25.8572ZM30.763 7.66767C30.3093 8.52104 30.6332 9.58066 31.4866 10.0344C32.34 10.4882 33.3996 10.1642 33.8533 9.31082L30.763 7.66767ZM35.9444 5.3781C36.3982 4.52474 36.0742 3.46511 35.2208 3.01137C34.3675 2.55763 33.3078 2.88159 32.8541 3.73495L35.9444 5.3781ZM37.6539 12.7283C36.8622 13.2827 36.6698 14.3739 37.2242 15.1656C37.7786 15.9573 38.8698 16.1497 39.6615 15.5954L37.6539 12.7283ZM43.31 13.0406C44.1017 12.4863 44.2942 11.3951 43.7398 10.6033C43.1854 9.81163 42.0942 9.61922 41.3025 10.1736L43.31 13.0406ZM41.4353 20.3889C40.476 20.5067 39.7938 21.3798 39.9116 22.3391C40.0294 23.2984 40.9025 23.9806 41.8618 23.8628L41.4353 20.3889ZM46.2827 23.32C47.242 23.2022 47.9242 22.3291 47.8064 21.3698C47.6886 20.4105 46.8155 19.7283 45.8562 19.8461L46.2827 23.32ZM41.2591 28.946C40.3568 28.5997 39.3446 29.0503 38.9982 29.9526C38.6518 30.8549 39.1025 31.8672 40.0048 32.2136L41.2591 28.946ZM44.1631 33.8098C45.0654 34.1561 46.0776 33.7054 46.424 32.8031C46.7703 31.9008 46.3197 30.8886 45.4174 30.5422L44.1631 33.8098ZM37.1116 36.4471C36.4649 35.7289 35.3583 35.6709 34.6401 36.3176C33.9218 36.9643 33.8639 38.0708 34.5106 38.7891L37.1116 36.4471ZM37.4909 42.0991C38.1376 42.8173 39.2442 42.8753 39.9624 42.2286C40.6807 41.5819 40.7386 40.4754 40.0919 39.7571L37.4909 42.0991ZM30.0281 41.1471C29.7942 40.2093 28.8445 39.6386 27.9067 39.8725C26.9689 40.1063 26.3982 41.056 26.632 41.9938L30.0281 41.1471ZM27.7096 46.3156C27.9434 47.2534 28.8931 47.8241 29.8309 47.5903C30.7687 47.3564 31.3394 46.4067 31.1056 45.4689L27.7096 46.3156ZM21.5823 41.9938C21.8161 41.056 21.2455 40.1063 20.3077 39.8725C19.3699 39.6386 18.4201 40.2093 18.1863 41.1471L21.5823 41.9938ZM17.1087 45.4689C16.8749 46.4067 17.4456 47.3564 18.3834 47.5903C19.3212 47.8241 20.271 47.2534 20.5048 46.3156L17.1087 45.4689ZM13.7038 38.7891C14.3505 38.0708 14.2925 36.9643 13.5742 36.3176C12.856 35.6709 11.7495 35.7289 11.1028 36.4471L13.7038 38.7891ZM8.1224 39.7571C7.47568 40.4754 7.53367 41.5819 8.25192 42.2286C8.97017 42.8753 10.0767 42.8173 10.7234 42.0991L8.1224 39.7571ZM8.20951 32.2136C9.11181 31.8672 9.56249 30.8549 9.21613 29.9526C8.86977 29.0503 7.85752 28.5997 6.95522 28.946L8.20951 32.2136ZM2.79698 30.5422C1.89467 30.8886 1.44399 31.9008 1.79036 32.8031C2.13672 33.7054 3.14896 34.1561 4.05127 33.8098L2.79698 30.5422ZM6.35251 23.8628C7.3118 23.9806 8.18495 23.2984 8.30274 22.3391C8.42052 21.3798 7.73835 20.5067 6.77905 20.3889L6.35251 23.8628ZM2.35817 19.8461C1.39887 19.7283 0.525728 20.4105 0.407942 21.3698C0.290155 22.3291 0.972332 23.2022 1.93163 23.32L2.35817 19.8461ZM8.55287 15.5954C9.34458 16.1497 10.4358 15.9573 10.9901 15.1656C11.5445 14.3739 11.3521 13.2827 10.5604 12.7283L8.55287 15.5954ZM6.91181 10.1736C6.1201 9.61922 5.0289 9.81163 4.47454 10.6033C3.92018 11.3951 4.11259 12.4863 4.9043 13.0406L6.91181 10.1736ZM14.361 9.31082C14.8147 10.1642 15.8744 10.4882 16.7277 10.0344C17.5811 9.58066 17.9051 8.52104 17.4513 7.66767L14.361 9.31082ZM15.3602 3.73495C14.9065 2.88158 13.8469 2.55763 12.9935 3.01137C12.1401 3.46511 11.8162 4.52474 12.2699 5.3781L15.3602 3.73495ZM25.8572 6.45408V2H22.3572V6.45408H25.8572ZM33.8533 9.31082L35.9444 5.3781L32.8541 3.73495L30.763 7.66767L33.8533 9.31082ZM39.6615 15.5954L43.31 13.0406L41.3025 10.1736L37.6539 12.7283L39.6615 15.5954ZM41.8618 23.8628L46.2827 23.32L45.8562 19.8461L41.4353 20.3889L41.8618 23.8628ZM40.0048 32.2136L44.1631 33.8098L45.4174 30.5422L41.2591 28.946L40.0048 32.2136ZM34.5106 38.7891L37.4909 42.0991L40.0919 39.7571L37.1116 36.4471L34.5106 38.7891ZM26.632 41.9938L27.7096 46.3156L31.1056 45.4689L30.0281 41.1471L26.632 41.9938ZM18.1863 41.1471L17.1087 45.4689L20.5048 46.3156L21.5823 41.9938L18.1863 41.1471ZM11.1028 36.4471L8.1224 39.7571L10.7234 42.0991L13.7038 38.7891L11.1028 36.4471ZM6.95522 28.946L2.79698 30.5422L4.05127 33.8098L8.20951 32.2136L6.95522 28.946ZM6.77905 20.3889L2.35817 19.8461L1.93163 23.32L6.35251 23.8628L6.77905 20.3889ZM10.5604 12.7283L6.91181 10.1736L4.9043 13.0406L8.55287 15.5954L10.5604 12.7283ZM17.4513 7.66767L15.3602 3.73495L12.2699 5.3781L14.361 9.31082L17.4513 7.66767Z" fill="#263238"/>
<path fill-rule="evenodd" clip-rule="evenodd" d="M35.44 24.66C29.4864 24.66 24.66 19.8336 24.66 13.88C24.66 19.8336 19.8336 24.66 13.88 24.66C19.8336 24.66 24.66 29.4864 24.66 35.44C24.66 29.4864 29.4864 24.66 35.44 24.66Z" fill="#F7E07E" stroke="#263238" stroke-width="3.5" stroke-linecap="round" stroke-linejoin="round"/>
</svg>
