<svg width="233" height="241" viewBox="0 0 233 241" fill="none" xmlns="http://www.w3.org/2000/svg">
<g opacity="0.81">
<path fill-rule="evenodd" clip-rule="evenodd" d="M207.932 64.3506C211.496 95.3816 206.122 127.552 190.552 156.973C175.006 186.348 151.479 208.861 123.872 223.369L115.767 208.73C141.216 196.468 162.972 176.447 177.057 149.831C191.164 123.174 195.474 93.8751 191.266 65.8973L207.932 64.3506Z" fill="#D5AD9F" stroke="#263238" stroke-width="3.5" stroke-linecap="round" stroke-linejoin="round"/>
<path fill-rule="evenodd" clip-rule="evenodd" d="M61.6584 111.005L44.2387 79.5432L191.266 65.8973C195.474 93.8751 191.164 123.174 177.057 149.831C162.972 176.447 141.216 196.468 115.767 208.73L93.8547 169.154C93.4195 169.977 93.0699 170.637 92.8309 171.089L92.6111 171.504L87.7145 180.757C85.3675 185.192 79.785 186.84 75.2662 184.448C70.7382 182.052 68.9698 176.515 71.3172 172.079L78.0233 159.407L80.6744 154.398C83.024 149.958 81.2624 144.408 76.7344 142.012C72.2157 139.62 66.6291 141.276 64.2771 145.72L60.8644 152.169L47.2722 177.853C44.9202 182.297 39.3337 183.953 34.8149 181.562C30.2869 179.165 28.5253 173.615 30.8749 169.175L42.8562 146.535L56.3863 120.969C57.0621 119.692 59.0978 115.844 61.6584 111.005Z" fill="#F7E07E" stroke="#263238" stroke-width="3.5" stroke-linecap="round" stroke-linejoin="round"/>
<ellipse cx="162.862" cy="129.973" rx="3.71037" ry="3.63762" transform="rotate(27.8881 162.862 129.973)" fill="#263238"/>
<ellipse cx="176.721" cy="87.9197" rx="3.71037" ry="3.63762" transform="rotate(27.8881 176.721 87.9197)" fill="#263238"/>
<path fill-rule="evenodd" clip-rule="evenodd" d="M92.2915 96.7419L87.3829 94.1443C83.7549 92.2243 79.2898 93.5466 77.4104 97.0979C75.5348 100.642 76.9487 105.085 80.577 107.005L85.4855 109.603L85.4823 109.609C83.6044 113.157 85.0191 117.587 88.6415 119.504C92.2565 121.417 96.7225 120.099 98.6001 116.551L105.413 103.678C107.29 100.129 105.876 95.6996 102.253 93.7826C98.6383 91.8695 94.1723 93.1878 92.2947 96.7358L92.2915 96.7419Z" fill="#D5AD9F" stroke="#263238" stroke-width="3.5" stroke-linecap="round" stroke-linejoin="round"/>
<ellipse cx="145.072" cy="104.096" rx="11.1311" ry="10.9129" transform="rotate(27.8881 145.072 104.096)" fill="#FF7171" stroke="#263238" stroke-width="3.5" stroke-linecap="round" stroke-linejoin="round"/>
<ellipse cx="112.14" cy="150.459" rx="7.42075" ry="7.27524" transform="rotate(27.8881 112.14 150.459)" fill="#FF7171" stroke="#263238" stroke-width="3.5" stroke-linecap="round" stroke-linejoin="round"/>
<ellipse cx="146.821" cy="152.351" rx="7.42075" ry="7.27524" transform="rotate(27.8881 146.821 152.351)" fill="#FF7171" stroke="#263238" stroke-width="3.5" stroke-linecap="round" stroke-linejoin="round"/>
</g>
</svg>
