<svg width="152" height="152" viewBox="0 0 152 152" fill="none" xmlns="http://www.w3.org/2000/svg">
<g opacity="0.68">
<path fill-rule="evenodd" clip-rule="evenodd" d="M17.5112 96.8445L25.7784 40.3246C26.7296 33.8214 22.1091 27.7609 15.4582 26.7881L16.6638 18.5456L137.09 36.1605L135.884 44.403C129.233 43.4301 123.07 47.9133 122.119 54.4165L113.852 110.936L112.991 116.824C112.04 123.327 105.882 127.811 99.2373 126.839L26.9587 116.267C20.3141 115.295 15.6985 109.237 16.65 102.732L17.5112 96.8445V96.8445Z" fill="#8BE2C3" stroke="#263238" stroke-width="3.5" stroke-linecap="round" stroke-linejoin="round"/>
<path fill-rule="evenodd" clip-rule="evenodd" d="M119.88 69.724L131.923 71.4855C138.574 72.4583 143.175 78.6505 142.205 85.2804L140.558 96.5386C139.586 103.184 133.408 107.783 126.756 106.81L114.713 105.049L119.88 69.724Z" fill="#E1F2FA" stroke="#263238" stroke-width="3.5" stroke-linecap="round" stroke-linejoin="round"/>
<path fill-rule="evenodd" clip-rule="evenodd" d="M62.215 55.2737C64.8122 52.0599 69.0496 50.262 73.5063 50.9139C77.9629 51.5657 81.5079 54.502 83.0757 58.3251C87.2327 58.9374 90.966 61.6401 92.6423 65.7398C94.3186 69.8396 93.5126 74.296 90.9223 77.5152C92.4821 81.3414 91.9779 85.842 89.1976 89.2898C86.4173 92.7377 82.0663 94.2579 77.9081 93.6539C75.311 96.8678 71.0735 98.6657 66.6169 98.0138C62.1602 97.3619 58.6153 94.4257 57.0474 90.6026C52.8904 89.9903 49.1572 87.2876 47.4808 83.1878C45.8045 79.0881 46.6105 74.6316 49.2009 71.4125C47.6411 67.5863 48.1452 63.0857 50.9255 59.6379C53.7059 56.19 58.0568 54.6698 62.215 55.2737V55.2737Z" fill="#6FC373" stroke="#263238" stroke-width="3.5" stroke-linecap="round" stroke-linejoin="round"/>
</g>
</svg>
